<svg xmlns="http://www.w3.org/2000/svg" viewBox="0 0 512 512">
  <defs>
    <linearGradient id="grad" x1="0%" y1="0%" x2="100%" y2="100%">
      <stop offset="0%" style="stop-color:#22d3ee;stop-opacity:1" />
      <stop offset="100%" style="stop-color:#06b6d4;stop-opacity:1" />
    </linearGradient>
  </defs>
  <!-- Background circle -->
  <circle cx="256" cy="256" r="240" fill="#09090b"/>
  <!-- Stylized 'f' with scan lines -->
  <g fill="url(#grad)">
    <!-- Main 'f' letter -->
    <path d="M200 160 L200 352 L240 352 L240 272 L320 272 L320 232 L240 232 L240 200 C240 180 252 168 272 168 L320 168 L320 128 L264 128 C224 128 200 152 200 192 L200 160 Z"/>
    <!-- Scan line decorations -->
    <rect x="160" y="380" width="192" height="8" rx="4"/>
    <rect x="180" y="400" width="152" height="6" rx="3" opacity="0.7"/>
    <rect x="200" y="418" width="112" height="4" rx="2" opacity="0.5"/>
  </g>
  <!-- Magnifying glass hint -->
  <circle cx="256" cy="240" r="100" fill="none" stroke="url(#grad)" stroke-width="8" opacity="0.3"/>
</svg>
